<svg width="14" height="15" viewBox="0 0 14 15" fill="none" xmlns="http://www.w3.org/2000/svg">
<path d="M12.4153 5.17237L8.94397 4.63184L7.39221 1.26124C7.34983 1.16895 7.2801 1.09424 7.19397 1.04883C6.97795 0.934576 6.71545 1.02979 6.60744 1.26124L5.05569 4.63184L1.5844 5.17237C1.48869 5.18702 1.40119 5.23536 1.3342 5.3086C1.25321 5.39779 1.20858 5.51778 1.21012 5.64221C1.21166 5.76663 1.25924 5.88531 1.34241 5.97217L3.85393 8.59571L3.26057 12.3003C3.24666 12.3865 3.25556 12.4751 3.28626 12.5561C3.31697 12.6372 3.36825 12.7074 3.4343 12.7588C3.50034 12.8102 3.57851 12.8407 3.65992 12.8469C3.74134 12.8531 3.82276 12.8348 3.89494 12.794L6.99983 11.0449L10.1047 12.794C10.1895 12.8423 10.2879 12.8584 10.3823 12.8408C10.6201 12.7969 10.7801 12.5552 10.7391 12.3003L10.1457 8.59571L12.6573 5.97217C12.7256 5.9004 12.7707 5.80665 12.7844 5.70411C12.8213 5.44776 12.6545 5.21045 12.4153 5.17237Z" fill="#D8D8DD"/>
<mask id="mask0_1_2661" style="mask-type:alpha" maskUnits="userSpaceOnUse" x="1" y="1" width="12" height="12">
<path d="M12.4153 5.17237L8.94397 4.63184L7.39221 1.26124C7.34983 1.16895 7.2801 1.09424 7.19397 1.04883C6.97795 0.934576 6.71545 1.02979 6.60744 1.26124L5.05569 4.63184L1.5844 5.17237C1.48869 5.18702 1.40119 5.23536 1.3342 5.3086C1.25321 5.39779 1.20858 5.51778 1.21012 5.64221C1.21166 5.76663 1.25924 5.88531 1.34241 5.97217L3.85393 8.59571L3.26057 12.3003C3.24666 12.3865 3.25556 12.4751 3.28626 12.5561C3.31697 12.6372 3.36825 12.7074 3.4343 12.7588C3.50034 12.8102 3.57851 12.8407 3.65992 12.8469C3.74134 12.8531 3.82276 12.8348 3.89494 12.794L6.99983 11.0449L10.1047 12.794C10.1895 12.8423 10.2879 12.8584 10.3823 12.8408C10.6201 12.7969 10.7801 12.5552 10.7391 12.3003L10.1457 8.59571L12.6573 5.97217C12.7256 5.9004 12.7707 5.80665 12.7844 5.70411C12.8213 5.44776 12.6545 5.21046 12.4153 5.17237Z" fill="#F4CD0C"/>
</mask>
<g mask="url(#mask0_1_2661)">
<rect x="-9" width="66" height="75" fill="#F4B30C"/>
</g>
</svg>
